<?xml version="1.0" encoding="UTF-8" standalone="no"?>
<!DOCTYPE svg PUBLIC "-//W3C//DTD SVG 1.1//EN"
 "http://www.w3.org/Graphics/SVG/1.1/DTD/svg11.dtd">
<!-- Generated by graphviz version 5.0.0 (20220707.1540)
 -->
<!-- Title: dependencies Pages: 1 -->
<svg width="958pt" height="247pt"
 viewBox="0.00 0.00 958.00 246.80" xmlns="http://www.w3.org/2000/svg" xmlns:xlink="http://www.w3.org/1999/xlink">
<g id="graph0" class="graph" transform="scale(1 1) rotate(0) translate(4 242.8)">
<title>dependencies</title>
<polygon fill="white" stroke="transparent" points="-4,4 -4,-242.8 954,-242.8 954,4 -4,4"/>
<text text-anchor="middle" x="475" y="-8.2" font-family="sans-serif" font-size="14.00">dependencies</text>
<g id="clust1" class="cluster">
<title>cluster_AppModule</title>
<polygon fill="none" stroke="black" stroke-dasharray="1,5" points="8,-32.8 8,-230.8 942,-230.8 942,-32.8 8,-32.8"/>
</g>
<g id="clust2" class="cluster">
<title>cluster_AppModule_declarations</title>
<polygon fill="none" stroke="black" points="494,-40.8 494,-92.8 934,-92.8 934,-40.8 494,-40.8"/>
</g>
<g id="clust6" class="cluster">
<title>cluster_AppModule_imports</title>
<polygon fill="none" stroke="black" points="342,-40.8 342,-92.8 486,-92.8 486,-40.8 342,-40.8"/>
</g>
<g id="clust8" class="cluster">
<title>cluster_AppModule_bootstrap</title>
<polygon fill="none" stroke="black" points="429,-170.8 429,-222.8 553,-222.8 553,-170.8 429,-170.8"/>
</g>
<g id="clust9" class="cluster">
<title>cluster_AppModule_providers</title>
<polygon fill="none" stroke="black" points="16,-40.8 16,-92.8 334,-92.8 334,-40.8 16,-40.8"/>
</g>
<!-- AppComponent -->
<g id="node1" class="node">
<title>AppComponent</title>
<polygon fill="#ffffb3" stroke="black" points="925.94,-84.8 820.06,-84.8 820.06,-48.8 925.94,-48.8 925.94,-84.8"/>
<text text-anchor="middle" x="873" y="-62.6" font-family="Times,serif" font-size="14.00">AppComponent</text>
</g>
<!-- AppModule -->
<g id="node4" class="node">
<title>AppModule</title>
<polygon fill="#8dd3c7" stroke="black" points="532.66,-149.8 529.66,-153.8 508.66,-153.8 505.66,-149.8 449.34,-149.8 449.34,-113.8 532.66,-113.8 532.66,-149.8"/>
<text text-anchor="middle" x="491" y="-127.6" font-family="Times,serif" font-size="14.00">AppModule</text>
</g>
<!-- AppComponent&#45;&gt;AppModule -->
<g id="edge1" class="edge">
<title>AppComponent&#45;&gt;AppModule</title>
<path fill="none" stroke="black" d="M873,-85.08C873,-106.12 873,-137.8 873,-137.8 873,-137.8 542.97,-137.8 542.97,-137.8"/>
<polygon fill="black" stroke="black" points="542.97,-134.3 532.97,-137.8 542.97,-141.3 542.97,-134.3"/>
</g>
<!-- RegistrationComponent -->
<g id="node2" class="node">
<title>RegistrationComponent</title>
<polygon fill="#ffffb3" stroke="black" points="801.77,-84.8 652.23,-84.8 652.23,-48.8 801.77,-48.8 801.77,-84.8"/>
<text text-anchor="middle" x="727" y="-62.6" font-family="Times,serif" font-size="14.00">RegistrationComponent</text>
</g>
<!-- RegistrationComponent&#45;&gt;AppModule -->
<g id="edge2" class="edge">
<title>RegistrationComponent&#45;&gt;AppModule</title>
<path fill="none" stroke="black" d="M727,-84.82C727,-102.17 727,-125.8 727,-125.8 727,-125.8 542.92,-125.8 542.92,-125.8"/>
<polygon fill="black" stroke="black" points="542.92,-122.3 532.92,-125.8 542.92,-129.3 542.92,-122.3"/>
</g>
<!-- TrackingComponent -->
<g id="node3" class="node">
<title>TrackingComponent</title>
<polygon fill="#ffffb3" stroke="black" points="633.86,-84.8 502.14,-84.8 502.14,-48.8 633.86,-48.8 633.86,-84.8"/>
<text text-anchor="middle" x="568" y="-62.6" font-family="Times,serif" font-size="14.00">TrackingComponent</text>
</g>
<!-- TrackingComponent&#45;&gt;AppModule -->
<g id="edge3" class="edge">
<title>TrackingComponent&#45;&gt;AppModule</title>
<path fill="none" stroke="black" d="M517.45,-84.91C517.45,-84.91 517.45,-103.79 517.45,-103.79"/>
<polygon fill="black" stroke="black" points="513.95,-103.79 517.45,-113.79 520.95,-103.79 513.95,-103.79"/>
</g>
<!-- AppComponent  -->
<g id="node6" class="node">
<title>AppComponent </title>
<polygon fill="#80b1d3" stroke="black" points="545.44,-214.8 436.56,-214.8 436.56,-178.8 545.44,-178.8 545.44,-214.8"/>
<text text-anchor="middle" x="491" y="-192.6" font-family="Times,serif" font-size="14.00">AppComponent </text>
</g>
<!-- AppModule&#45;&gt;AppComponent  -->
<g id="edge5" class="edge">
<title>AppModule&#45;&gt;AppComponent </title>
<path fill="none" stroke="black" stroke-dasharray="1,5" d="M491,-149.91C491,-149.91 491,-168.79 491,-168.79"/>
<polygon fill="black" stroke="black" points="487.5,-168.79 491,-178.79 494.5,-168.79 487.5,-168.79"/>
</g>
<!-- AppRoutingModule -->
<g id="node5" class="node">
<title>AppRoutingModule</title>
<polygon fill="#8dd3c7" stroke="black" points="478.28,-84.8 475.28,-88.8 454.28,-88.8 451.28,-84.8 349.72,-84.8 349.72,-48.8 478.28,-48.8 478.28,-84.8"/>
<text text-anchor="middle" x="414" y="-62.6" font-family="Times,serif" font-size="14.00">AppRoutingModule</text>
</g>
<!-- AppRoutingModule&#45;&gt;AppModule -->
<g id="edge4" class="edge">
<title>AppRoutingModule&#45;&gt;AppModule</title>
<path fill="none" stroke="black" d="M463.78,-84.91C463.78,-84.91 463.78,-103.79 463.78,-103.79"/>
<polygon fill="black" stroke="black" points="460.28,-103.79 463.78,-113.79 467.28,-103.79 460.28,-103.79"/>
</g>
<!-- LogisticService -->
<g id="node7" class="node">
<title>LogisticService</title>
<ellipse fill="#fdb462" stroke="black" cx="254" cy="-66.8" rx="71.78" ry="18"/>
<text text-anchor="middle" x="254" y="-62.6" font-family="Times,serif" font-size="14.00">LogisticService</text>
</g>
<!-- LogisticService&#45;&gt;AppModule -->
<g id="edge6" class="edge">
<title>LogisticService&#45;&gt;AppModule</title>
<path fill="none" stroke="black" d="M254,-84.82C254,-102.17 254,-125.8 254,-125.8 254,-125.8 439.17,-125.8 439.17,-125.8"/>
<polygon fill="black" stroke="black" points="439.17,-129.3 449.17,-125.8 439.17,-122.3 439.17,-129.3"/>
</g>
<!-- ProductService -->
<g id="node8" class="node">
<title>ProductService</title>
<ellipse fill="#fdb462" stroke="black" cx="94" cy="-66.8" rx="70.07" ry="18"/>
<text text-anchor="middle" x="94" y="-62.6" font-family="Times,serif" font-size="14.00">ProductService</text>
</g>
<!-- ProductService&#45;&gt;AppModule -->
<g id="edge7" class="edge">
<title>ProductService&#45;&gt;AppModule</title>
<path fill="none" stroke="black" d="M94,-85.08C94,-106.12 94,-137.8 94,-137.8 94,-137.8 439.26,-137.8 439.26,-137.8"/>
<polygon fill="black" stroke="black" points="439.26,-141.3 449.26,-137.8 439.26,-134.3 439.26,-141.3"/>
</g>
</g>
</svg>
