<?xml version="1.0" encoding="UTF-8" standalone="no"?>
<!DOCTYPE svg PUBLIC "-//W3C//DTD SVG 1.1//EN"
 "http://www.w3.org/Graphics/SVG/1.1/DTD/svg11.dtd">
<!-- Generated by graphviz version 5.0.0 (20220707.1540)
 -->
<!-- Title: dependencies Pages: 1 -->
<svg width="958pt" height="247pt"
 viewBox="0.00 0.00 958.00 246.80" xmlns="http://www.w3.org/2000/svg" xmlns:xlink="http://www.w3.org/1999/xlink">
<g id="graph0" class="graph" transform="scale(1 1) rotate(0) translate(4 242.8)">
<title>dependencies</title>
<polygon fill="white" stroke="transparent" points="-4,4 -4,-242.8 954,-242.8 954,4 -4,4"/>
<text text-anchor="middle" x="475" y="-8.2" font-family="sans-serif" font-size="14.00">dependencies</text>
<g id="clust1" class="cluster">
<title>cluster_AppModule</title>
<polygon fill="none" stroke="black" stroke-dasharray="1,5" points="8,-32.8 8,-230.8 942,-230.8 942,-32.8 8,-32.8"/>
</g>
<g id="clust2" class="cluster">
<title>cluster_AppModule_declarations</title>
<polygon fill="none" stroke="black" points="494,-40.8 494,-92.8 934,-92.8 934,-40.8 494,-40.8"/>
</g>
<g id="clust9" class="cluster">
<title>cluster_AppModule_providers</title>
<polygon fill="none" stroke="black" points="168,-40.8 168,-92.8 486,-92.8 486,-40.8 168,-40.8"/>
</g>
<g id="clust6" class="cluster">
<title>cluster_AppModule_imports</title>
<polygon fill="none" stroke="black" points="16,-40.8 16,-92.8 160,-92.8 160,-40.8 16,-40.8"/>
</g>
<g id="clust8" class="cluster">
<title>cluster_AppModule_bootstrap</title>
<polygon fill="none" stroke="black" points="425,-170.8 425,-222.8 549,-222.8 549,-170.8 425,-170.8"/>
</g>
<!-- AppComponent -->
<g id="node1" class="node">
<title>AppComponent</title>
<polygon fill="#ffffb3" stroke="black" points="925.94,-84.8 820.06,-84.8 820.06,-48.8 925.94,-48.8 925.94,-84.8"/>
<text text-anchor="middle" x="873" y="-62.6" font-family="Times,serif" font-size="14.00">AppComponent</text>
</g>
<!-- AppModule -->
<g id="node4" class="node">
<title>AppModule</title>
<polygon fill="#8dd3c7" stroke="black" points="528.66,-149.8 525.66,-153.8 504.66,-153.8 501.66,-149.8 445.34,-149.8 445.34,-113.8 528.66,-113.8 528.66,-149.8"/>
<text text-anchor="middle" x="487" y="-127.6" font-family="Times,serif" font-size="14.00">AppModule</text>
</g>
<!-- AppComponent&#45;&gt;AppModule -->
<g id="edge1" class="edge">
<title>AppComponent&#45;&gt;AppModule</title>
<path fill="none" stroke="black" d="M873,-85.08C873,-106.12 873,-137.8 873,-137.8 873,-137.8 538.68,-137.8 538.68,-137.8"/>
<polygon fill="black" stroke="black" points="538.68,-134.3 528.68,-137.8 538.68,-141.3 538.68,-134.3"/>
</g>
<!-- RegistrationComponent -->
<g id="node2" class="node">
<title>RegistrationComponent</title>
<polygon fill="#ffffb3" stroke="black" points="801.77,-84.8 652.23,-84.8 652.23,-48.8 801.77,-48.8 801.77,-84.8"/>
<text text-anchor="middle" x="727" y="-62.6" font-family="Times,serif" font-size="14.00">RegistrationComponent</text>
</g>
<!-- RegistrationComponent&#45;&gt;AppModule -->
<g id="edge2" class="edge">
<title>RegistrationComponent&#45;&gt;AppModule</title>
<path fill="none" stroke="black" d="M727,-84.82C727,-102.17 727,-125.8 727,-125.8 727,-125.8 538.8,-125.8 538.8,-125.8"/>
<polygon fill="black" stroke="black" points="538.8,-122.3 528.8,-125.8 538.8,-129.3 538.8,-122.3"/>
</g>
<!-- TrackingComponent -->
<g id="node3" class="node">
<title>TrackingComponent</title>
<polygon fill="#ffffb3" stroke="black" points="633.86,-84.8 502.14,-84.8 502.14,-48.8 633.86,-48.8 633.86,-84.8"/>
<text text-anchor="middle" x="568" y="-62.6" font-family="Times,serif" font-size="14.00">TrackingComponent</text>
</g>
<!-- TrackingComponent&#45;&gt;AppModule -->
<g id="edge3" class="edge">
<title>TrackingComponent&#45;&gt;AppModule</title>
<path fill="none" stroke="black" d="M515.45,-84.91C515.45,-84.91 515.45,-103.79 515.45,-103.79"/>
<polygon fill="black" stroke="black" points="511.95,-103.79 515.45,-113.79 518.95,-103.79 511.95,-103.79"/>
</g>
<!-- AppComponent  -->
<g id="node6" class="node">
<title>AppComponent </title>
<polygon fill="#80b1d3" stroke="black" points="541.44,-214.8 432.56,-214.8 432.56,-178.8 541.44,-178.8 541.44,-214.8"/>
<text text-anchor="middle" x="487" y="-192.6" font-family="Times,serif" font-size="14.00">AppComponent </text>
</g>
<!-- AppModule&#45;&gt;AppComponent  -->
<g id="edge5" class="edge">
<title>AppModule&#45;&gt;AppComponent </title>
<path fill="none" stroke="black" stroke-dasharray="1,5" d="M487,-149.91C487,-149.91 487,-168.79 487,-168.79"/>
<polygon fill="black" stroke="black" points="483.5,-168.79 487,-178.79 490.5,-168.79 483.5,-168.79"/>
</g>
<!-- AppRoutingModule -->
<g id="node5" class="node">
<title>AppRoutingModule</title>
<polygon fill="#8dd3c7" stroke="black" points="152.28,-84.8 149.28,-88.8 128.28,-88.8 125.28,-84.8 23.72,-84.8 23.72,-48.8 152.28,-48.8 152.28,-84.8"/>
<text text-anchor="middle" x="88" y="-62.6" font-family="Times,serif" font-size="14.00">AppRoutingModule</text>
</g>
<!-- AppRoutingModule&#45;&gt;AppModule -->
<g id="edge4" class="edge">
<title>AppRoutingModule&#45;&gt;AppModule</title>
<path fill="none" stroke="black" d="M88,-85.08C88,-106.12 88,-137.8 88,-137.8 88,-137.8 435.05,-137.8 435.05,-137.8"/>
<polygon fill="black" stroke="black" points="435.05,-141.3 445.05,-137.8 435.05,-134.3 435.05,-141.3"/>
</g>
<!-- LogisticService -->
<g id="node7" class="node">
<title>LogisticService</title>
<ellipse fill="#fdb462" stroke="black" cx="406" cy="-66.8" rx="71.78" ry="18"/>
<text text-anchor="middle" x="406" y="-62.6" font-family="Times,serif" font-size="14.00">LogisticService</text>
</g>
<!-- LogisticService&#45;&gt;AppModule -->
<g id="edge6" class="edge">
<title>LogisticService&#45;&gt;AppModule</title>
<path fill="none" stroke="black" d="M461.41,-78.42C461.41,-78.42 461.41,-103.65 461.41,-103.65"/>
<polygon fill="black" stroke="black" points="457.91,-103.65 461.41,-113.65 464.91,-103.65 457.91,-103.65"/>
</g>
<!-- ProductService -->
<g id="node8" class="node">
<title>ProductService</title>
<ellipse fill="#fdb462" stroke="black" cx="246" cy="-66.8" rx="70.07" ry="18"/>
<text text-anchor="middle" x="246" y="-62.6" font-family="Times,serif" font-size="14.00">ProductService</text>
</g>
<!-- ProductService&#45;&gt;AppModule -->
<g id="edge7" class="edge">
<title>ProductService&#45;&gt;AppModule</title>
<path fill="none" stroke="black" d="M246,-84.82C246,-102.17 246,-125.8 246,-125.8 246,-125.8 435.3,-125.8 435.3,-125.8"/>
<polygon fill="black" stroke="black" points="435.3,-129.3 445.3,-125.8 435.3,-122.3 435.3,-129.3"/>
</g>
</g>
</svg>
